<?xml version="1.0" encoding="UTF-8"?>
<svg id="Ebene_1" data-name="Ebene 1" xmlns="http://www.w3.org/2000/svg" viewBox="0 0 25.83 25.58">
  <defs>
    <style>
      .cls-1 {
        fill: #010101;
      }
    </style>
  </defs>
  <path class="cls-1" d="M12.92,0C5.79,0,0,5.73,0,12.79s5.79,12.79,12.92,12.79,12.92-5.73,12.92-12.79S20.04,0,12.92,0ZM12.92,1.11c6.52,0,11.79,5.22,11.79,11.68s-5.27,11.68-11.79,11.68S1.12,19.25,1.12,12.79,6.4,1.11,12.92,1.11ZM13.76,5.01c-2.76,0-4.54,1.69-4.75,4.45h-2.27v3.34h2.25v6.12h3.37v-6.12h2.25v6.12h3.37v-9.45h-5.58c.17-1.11.85-1.11,1.37-1.11h1.42v-3.34h-1.42Z"/>
</svg>