<?xml version="1.0" encoding="UTF-8"?>
<svg id="Ebene_1" xmlns="http://www.w3.org/2000/svg" viewBox="0 0 24.62 21.42">
  <path d="M12.3,21.42c-3.08,0-6.15,0-9.23,0C1.18,21.42,0,20.26,0,18.4,0,13.27,0,8.13,0,3,0,1.18,1.17.01,3.02,0c1.46,0,2.92,0,4.38,0,1.68,0,2.73.91,3.01,2.54.02.09.15.19.26.23.1.04.23,0,.34,0,3.53,0,7.05,0,10.58,0,1.55,0,2.67.86,2.98,2.28.04.19.05.4.05.6,0,4.29,0,8.58,0,12.87,0,1.68-1.22,2.89-2.93,2.89-3.13,0-6.26,0-9.38,0ZM12.32,4.66c-3.09,0-6.18,0-9.27,0-.81,0-1.14.32-1.14,1.13,0,4.22,0,8.45,0,12.67,0,.77.34,1.1,1.13,1.1,6.18,0,12.35,0,18.53,0,.81,0,1.14-.33,1.14-1.13,0-4.21,0-8.42,0-12.64,0-.82-.33-1.14-1.17-1.14-3.08,0-6.15,0-9.23,0Z"/>
</svg>