<?xml version="1.0" encoding="UTF-8"?>
<svg id="Ebene_1" data-name="Ebene 1" xmlns="http://www.w3.org/2000/svg" viewBox="0 0 23.56 23.53">
  <path d="M14.72,23.14v-2.06c6.46-2,8.99-9.86,4.85-15.3-3.88-5.09-11.71-5.11-15.58,0-4.14,5.46-1.63,13.29,4.85,15.3v2.06C1.36,21.16-2.31,12.72,1.56,5.9c4.47-7.89,16.05-7.86,20.48.06,3.81,6.82.14,15.21-7.31,17.17Z"/>
  <path d="M12.76,11.66v11.87h-1.96v-11.87l-2.13,2.05c-.31.08-1.2-1.1-1.5-1.31l4.57-4.56,4.65,4.56c-.3.21-1.19,1.39-1.5,1.31-.11-.03-1.26-1.21-1.44-1.41-.21-.22-.34-.63-.68-.64Z"/>
</svg>