<?xml version="1.0" encoding="UTF-8"?>
<svg id="Ebene_1" xmlns="http://www.w3.org/2000/svg" viewBox="0 0 25.21 15.19">
  <path d="M12.15,15.18c-2.54,0-5.09,0-7.63,0-2.33,0-4.01-1.39-4.45-3.63-.43-2.17,1.29-4.55,3.52-4.85.35-.05.53-.17.67-.51.82-2.05,2.76-3.34,5.01-3.35.33,0,.51-.11.71-.36,2.98-3.78,8.91-3.14,10.86,1.18.12.27.24.55.3.83.06.31.21.44.51.54,2.24.73,3.65,2.82,3.56,5.22-.08,2.13-1.79,4.2-3.95,4.73-.53.13-1.09.18-1.63.19-2.49.02-4.98,0-7.48,0ZM5.73,8.67c-.48-.05-.91-.13-1.33-.13-1.39,0-2.43,1.02-2.43,2.35,0,1.35,1.01,2.37,2.41,2.37,5.18,0,10.36,0,15.55,0,1.44,0,2.7-.92,3.13-2.23.43-1.3-.1-2.87-1.23-3.69-.53-.39-1.14-.58-1.79-.65-.63-.07-.62-.06-.64-.7-.01-.33-.05-.67-.15-.99-.49-1.73-2.08-2.99-3.89-3.12-1.81-.13-3.58.92-4.33,2.57-.28.61-.15.59-.85.4-2.09-.57-4.17.85-4.35,2.97-.02.28-.06.55-.09.83Z"/>
  <path d="M12.64,11.44v-2.84h-1.59c.77-1.07,1.54-2.14,2.3-3.19.72,1.02,1.48,2.09,2.25,3.16h-1.58c0,.46,0,.88,0,1.3,0,.42,0,.85,0,1.27,0,.1-.09.28-.14.28-.39.02-.79.01-1.22.01Z"/>
</svg>