<svg xmlns="http://www.w3.org/2000/svg" id="Ebene_1" data-name="Ebene 1" viewBox="0 0 1194.38 1192.01"><defs><style>      .cls-1 {        fill: #010101;      }    </style></defs><path class="cls-1" d="M1.49,189.76c29.81-38.3,59.26-76.91,89.44-114.91,13.79-17.33,28.36-15.84,40.35,2.97,31.46,48.52,64.04,96.73,95.5,145.25,92.13,142.83,187.63,283.22,302.52,411.44,10.48,11.52,23.2,21.21,38.16,35.15,8.94-16.41,19-28.57,22.34-41.93,25.23-95.07,49.72-190.44,72.34-286.11,3.34-13.67-2.29-30.35-7.92-44.61-17.64-46.72-39.01-91.92-54.78-139.25-4.88-14.87-2.31-37.03,6.64-49.8,23.47-32.83,51.81-62.63,79.02-93.34,5.22-5.78,13.8-8.83,23.13-14.61,7.13,16.38,13.87,30.33,19.87,44.59,115.9,273.94,232.91,547.27,370.08,812.67,29.61,57.02,58.1,114.35,88.45,171.07,9.74,17.89,11.64,32.46-2.16,48.88-28.33,33.75-55.16,68.4-83.86,101.85-13.79,16.42-29.11,16.14-49.67,5.25-70.66-37.83-140.58-78.69-215.34-108.61-137.55-55.32-281.79-89.67-432.7-93.36-124.39-3.12-240.13,24.4-343.1,91.98-8.58,5.48-17.91,10.05-26.87,14.92-2.61,1.52-5.97,1.83-16.8,4.58,10.05-18.84,16-33.73,24.94-46.8,67.43-98.78,164.82-158.46,284.66-188.72,97.82-24.76,196.81-20.08,295.81-8.11,106.48,12.87,209.61,38.49,316.88,77.47-70.12-155.01-137.99-304.56-206.98-456.54-26.42,59.85-47.98,118.18-77.76,172.57-24.2,44.37-57.75,84.8-88.68,125.84-9.32,12.16-23.12,22.2-36.18,31.33-31.71,21.31-54.87,21.95-84.79-3.49-28.8-24.54-55.74-51.51-80.07-80.01-104.8-122.77-192.81-256.5-278.95-391.14C56.94,282.57,28.47,239.2,0,195.53v-4.86s1.48-.91,1.48-.91Z"></path></svg>